<?xml version="1.0" standalone="no"?>
<!DOCTYPE svg PUBLIC "-//W3C//DTD SVG 20010904//EN"
 "http://www.w3.org/TR/2001/REC-SVG-20010904/DTD/svg10.dtd">
<svg version="1.0" xmlns="http://www.w3.org/2000/svg"
 width="24.000000pt" height="24.000000pt" viewBox="0 0 24.000000 24.000000"
 preserveAspectRatio="xMidYMid meet">

<g transform="translate(0.000000,24.000000) scale(0.100000,-0.100000)"
fill="#000000" stroke="none">
<path d="M149 161 l-52 -59 -28 20 c-27 20 -49 18 -49 -5 0 -7 4 -6 10 3 8 12
13 11 39 -8 l30 -22 52 60 c29 33 54 58 57 56 8 -8 -100 -176 -113 -176 -7 0
-27 17 -45 38 -17 20 -27 28 -21 17 15 -32 59 -68 74 -62 16 6 117 167 117
186 0 23 -20 9 -71 -48z"/>
</g>
</svg>
