
<svg version="1.0" xmlns="http://www.w3.org/2000/svg"
 width="45px" height="45px" viewBox="0 0 64.000000 64.000000"
 preserveAspectRatio="xMidYMid meet">

<g transform="translate(0.000000,64.000000) scale(0.100000,-0.100000)"
fill="#fff" stroke="none">
<path d="M223 622 c-109 -39 -178 -112 -210 -221 -29 -102 4 -228 82 -306 122
-121 328 -121 450 0 60 61 90 135 90 225 -1 128 -61 227 -170 281 -82 40 -167
48 -242 21z m230 -55 c163 -96 195 -298 71 -436 -105 -117 -287 -121 -401 -9
-113 111 -109 297 8 402 65 59 115 76 205 72 56 -2 82 -9 117 -29z"/>
<path d="M194 439 c-3 -6 18 -35 47 -65 l53 -54 -54 -55 c-43 -43 -52 -57 -42
-67 10 -10 24 -1 67 42 l55 54 55 -54 c43 -43 57 -52 67 -42 10 10 1 24 -42
67 l-54 55 54 55 c43 43 52 57 42 67 -10 10 -24 1 -67 -42 l-55 -54 -53 52
c-56 55 -62 58 -73 41z"/>
</g>
</svg>
