<svg width="32" height="32" viewBox="0 0 32 32" fill="none" xmlns="http://www.w3.org/2000/svg">
<path fill-rule="evenodd" clip-rule="evenodd" d="M16 32C24.8366 32 32 24.8366 32 16C32 7.16344 24.8366 0 16 0C7.16344 0 0 7.16344 0 16C0 24.8366 7.16344 32 16 32Z" fill="white" fill-opacity="0.2"/>
<path fill-rule="evenodd" clip-rule="evenodd" d="M15.7351 8.25483L19.9568 15.4088C20.0687 15.589 20.1528 15.5983 20.2904 15.5983C20.4279 15.5983 20.6212 15.5291 20.6551 15.3489C21.1135 12.9669 21.7142 11.8657 22.5677 11.9647C22.9475 12.0087 23.0415 12.1475 22.9909 12.6777L22.8696 13.7805L22.7878 14.6161C22.7417 15.1273 22.7124 15.5467 22.7 15.8743C22.6489 17.2271 22.7117 18.0959 22.7 18.8827C22.6489 22.3407 18.5192 24.066 16.2291 23.3369C14.7024 22.8508 12.1897 20.1754 8.69115 15.3106C8.56921 15.0599 8.60703 14.8416 8.80463 14.6557C9.07631 14.4001 9.39378 14.5861 9.51118 14.6709L9.53805 14.6911C9.5955 14.7361 10.3978 15.5448 11.9451 17.117C12.1775 17.3487 12.3772 17.3931 12.5441 17.2502C12.711 17.1072 12.711 16.891 12.5441 16.6016L9.37737 11.9244C9.24957 11.6817 9.24957 11.3358 9.53805 11.128C9.82652 10.9203 10.1775 11.0083 10.3949 11.2747L13.948 15.4961C14.1237 15.679 14.3194 15.6986 14.5351 15.5551C14.7343 15.4301 14.7744 15.2478 14.6555 15.0082L11.5026 9.81124C11.3218 9.48609 11.3955 9.09474 11.7327 8.89375C12.0392 8.71104 12.3958 8.82038 12.6129 9.05843L12.6737 9.13354C12.811 9.32579 13.9962 10.9582 16.2291 14.0309C16.4004 14.2749 16.5918 14.3334 16.8034 14.2064C16.9843 14.0977 17.025 13.9264 16.9256 13.6925L14.6411 8.79847C14.5208 8.54395 14.6224 8.15874 14.941 8.00886C15.2596 7.85898 15.574 8.00886 15.7351 8.25483ZM8.05038 17.9014C8.38099 17.9239 8.63075 18.2102 8.60824 18.5408C8.55184 19.3692 8.78341 20.0443 9.31081 20.6069C9.83016 21.1609 10.5021 21.4152 11.3751 21.375C11.7061 21.3598 11.9868 21.6158 12.002 21.9468C12.0173 22.2778 11.7613 22.5585 11.4302 22.5738C10.2167 22.6296 9.20228 22.2458 8.43531 21.4276C7.67639 20.618 7.33234 19.6149 7.41101 18.4593C7.43352 18.1287 7.71978 17.8789 8.05038 17.9014ZM17.7148 6.70479C18.9283 6.64893 19.9427 7.03277 20.7097 7.85097C21.4686 8.66059 21.8127 9.66364 21.734 10.8193C21.7115 11.1499 21.4252 11.3996 21.0946 11.3771C20.764 11.3546 20.5143 11.0684 20.5368 10.7378C20.5932 9.90937 20.3616 9.23428 19.8342 8.67165C19.3148 8.1176 18.6429 7.86334 17.7699 7.90352C17.4389 7.91875 17.1582 7.66276 17.143 7.33174C17.1277 7.00072 17.3837 6.72002 17.7148 6.70479Z" fill="white"/>
</svg>
